<svg width="132" height="37" viewBox="0 0 132 37" fill="none" xmlns="http://www.w3.org/2000/svg">
<path d="M0.0340909 36V1.09091H23.5568V7.17614H7.41477V15.4943H22.3466V21.5795H7.41477V29.9148H23.625V36H0.0340909ZM59.7459 13.3125H52.2799C52.1436 12.3466 51.8652 11.4886 51.4447 10.7386C51.0243 9.97727 50.4845 9.32954 49.8254 8.79545C49.1663 8.26136 48.4049 7.85227 47.5413 7.56818C46.689 7.28409 45.7629 7.14205 44.7629 7.14205C42.9561 7.14205 41.3822 7.59091 40.0413 8.48864C38.7004 9.375 37.6606 10.6705 36.922 12.375C36.1834 14.0682 35.814 16.125 35.814 18.5455C35.814 21.0341 36.1834 23.125 36.922 24.8182C37.672 26.5114 38.7174 27.7898 40.0584 28.6534C41.3993 29.517 42.9504 29.9489 44.7118 29.9489C45.7004 29.9489 46.6152 29.8182 47.4561 29.5568C48.3084 29.2955 49.064 28.9148 49.7231 28.4148C50.3822 27.9034 50.9277 27.2841 51.3595 26.5568C51.8027 25.8295 52.1095 25 52.2799 24.0682L59.7459 24.1023C59.5527 25.7045 59.0697 27.25 58.297 28.7386C57.5356 30.2159 56.5072 31.5398 55.2118 32.7102C53.9277 33.8693 52.3936 34.7898 50.6095 35.4716C48.8368 36.142 46.8311 36.4773 44.5924 36.4773C41.4788 36.4773 38.6947 35.7727 36.2402 34.3636C33.797 32.9545 31.8652 30.9148 30.4447 28.2443C29.0356 25.5739 28.3311 22.3409 28.3311 18.5455C28.3311 14.7386 29.047 11.5 30.4788 8.82955C31.9106 6.15909 33.8538 4.125 36.3084 2.72727C38.7629 1.31818 41.5243 0.613635 44.5924 0.613635C46.6152 0.613635 48.4902 0.897726 50.2174 1.46591C51.9561 2.03409 53.4959 2.86364 54.8368 3.95454C56.1777 5.03409 57.2686 6.35795 58.1095 7.92614C58.9618 9.49432 59.5072 11.2898 59.7459 13.3125ZM64.5585 36V1.09091H71.9391V15.4943H86.9221V1.09091H94.2857V36H86.9221V21.5795H71.9391V36H64.5585ZM131.971 18.5455C131.971 22.3523 131.249 25.5909 129.806 28.2614C128.374 30.9318 126.419 32.9716 123.942 34.3807C121.476 35.7784 118.703 36.4773 115.624 36.4773C112.522 36.4773 109.738 35.7727 107.272 34.3636C104.806 32.9545 102.857 30.9148 101.425 28.2443C99.9932 25.5739 99.2773 22.3409 99.2773 18.5455C99.2773 14.7386 99.9932 11.5 101.425 8.82955C102.857 6.15909 104.806 4.125 107.272 2.72727C109.738 1.31818 112.522 0.613635 115.624 0.613635C118.703 0.613635 121.476 1.31818 123.942 2.72727C126.419 4.125 128.374 6.15909 129.806 8.82955C131.249 11.5 131.971 14.7386 131.971 18.5455ZM124.488 18.5455C124.488 16.0795 124.118 14 123.38 12.3068C122.652 10.6136 121.624 9.32955 120.294 8.45455C118.965 7.57955 117.408 7.14205 115.624 7.14205C113.84 7.14205 112.283 7.57955 110.953 8.45455C109.624 9.32955 108.59 10.6136 107.851 12.3068C107.124 14 106.76 16.0795 106.76 18.5455C106.76 21.0114 107.124 23.0909 107.851 24.7841C108.59 26.4773 109.624 27.7614 110.953 28.6364C112.283 29.5114 113.84 29.9489 115.624 29.9489C117.408 29.9489 118.965 29.5114 120.294 28.6364C121.624 27.7614 122.652 26.4773 123.38 24.7841C124.118 23.0909 124.488 21.0114 124.488 18.5455Z" fill="white"/>
</svg>
