<svg width="20" height="20" viewBox="0 0 20 20" fill="none" xmlns="http://www.w3.org/2000/svg">
<path d="M1.6665 5.00002C1.6665 4.53978 2.0396 4.16669 2.49984 4.16669H17.4998C17.9601 4.16669 18.3332 4.53978 18.3332 5.00002C18.3332 5.46026 17.9601 5.83335 17.4998 5.83335H2.49984C2.0396 5.83335 1.6665 5.46026 1.6665 5.00002Z" fill="#2D3648"/>
<path d="M1.6665 10C1.6665 9.53978 2.0396 9.16669 2.49984 9.16669H17.4998C17.9601 9.16669 18.3332 9.53978 18.3332 10C18.3332 10.4603 17.9601 10.8334 17.4998 10.8334H2.49984C2.0396 10.8334 1.6665 10.4603 1.6665 10Z" fill="#2D3648"/>
<path d="M2.49984 14.1667C2.0396 14.1667 1.6665 14.5398 1.6665 15C1.6665 15.4603 2.0396 15.8334 2.49984 15.8334H17.4998C17.9601 15.8334 18.3332 15.4603 18.3332 15C18.3332 14.5398 17.9601 14.1667 17.4998 14.1667H2.49984Z" fill="#2D3648"/>
</svg>
