<svg width="22" height="22" viewBox="0 0 22 22" fill="none" xmlns="http://www.w3.org/2000/svg">
<path d="M9.16683 9.16669C9.67309 9.16669 10.0835 9.57709 10.0835 10.0834V15.5834C10.0835 16.0896 9.67309 16.5 9.16683 16.5C8.66057 16.5 8.25016 16.0896 8.25016 15.5834V10.0834C8.25016 9.57709 8.66057 9.16669 9.16683 9.16669Z" fill="#FF5252"/>
<path d="M13.7502 15.5834V10.0834C13.7502 9.57709 13.3398 9.16669 12.8335 9.16669C12.3272 9.16669 11.9168 9.57709 11.9168 10.0834V15.5834C11.9168 16.0896 12.3272 16.5 12.8335 16.5C13.3398 16.5 13.7502 16.0896 13.7502 15.5834Z" fill="#FF5252"/>
<path fill-rule="evenodd" clip-rule="evenodd" d="M6.41683 4.58335V3.66669C6.41683 2.93734 6.70656 2.23787 7.22229 1.72214C7.73801 1.20642 8.43748 0.916687 9.16683 0.916687H12.8335C13.5628 0.916687 14.2623 1.20642 14.778 1.72214C15.2938 2.23787 15.5835 2.93734 15.5835 3.66669V4.58335H19.2502C19.7564 4.58335 20.1668 4.99376 20.1668 5.50002C20.1668 6.00628 19.7564 6.41669 19.2502 6.41669H18.3335V18.3334C18.3335 19.0627 18.0438 19.7622 17.528 20.2779C17.0123 20.7936 16.3128 21.0834 15.5835 21.0834H6.41683C5.68748 21.0834 4.98801 20.7936 4.47229 20.2779C3.95656 19.7622 3.66683 19.0627 3.66683 18.3334V6.41669H2.75016C2.2439 6.41669 1.8335 6.00628 1.8335 5.50002C1.8335 4.99376 2.2439 4.58335 2.75016 4.58335H6.41683ZM8.51865 3.01851C8.69056 2.8466 8.92371 2.75002 9.16683 2.75002H12.8335C13.0766 2.75002 13.3098 2.8466 13.4817 3.01851C13.6536 3.19041 13.7502 3.42357 13.7502 3.66669V4.58335H8.25016V3.66669C8.25016 3.42357 8.34674 3.19041 8.51865 3.01851ZM5.50016 6.41669V18.3334C5.50016 18.5765 5.59674 18.8096 5.76865 18.9815C5.94056 19.1534 6.17372 19.25 6.41683 19.25H15.5835C15.8266 19.25 16.0598 19.1534 16.2317 18.9815C16.4036 18.8096 16.5002 18.5765 16.5002 18.3334V6.41669H5.50016Z" fill="#FF5252"/>
</svg>
