<svg width="40" height="40" viewBox="0 0 40 40" fill="none" xmlns="http://www.w3.org/2000/svg">
<path d="M31.1787 11.1786C31.8295 10.5277 31.8295 9.4724 31.1787 8.82153C30.5278 8.17066 29.4725 8.17066 28.8217 8.82153L20.0002 17.643L11.1787 8.82153C10.5278 8.17066 9.47253 8.17066 8.82165 8.82153C8.17078 9.4724 8.17078 10.5277 8.82165 11.1786L17.6431 20L8.82165 28.8215C8.17078 29.4724 8.17078 30.5277 8.82165 31.1786C9.47253 31.8294 10.5278 31.8294 11.1787 31.1786L20.0002 22.3571L28.8217 31.1786C29.4725 31.8294 30.5278 31.8294 31.1787 31.1786C31.8295 30.5277 31.8295 29.4724 31.1787 28.8215L22.3572 20L31.1787 11.1786Z" fill="white"/>
</svg>
