<svg width="20" height="20" viewBox="0 0 16 16" fill="none" xmlns="http://www.w3.org/2000/svg">
<path fill-rule="evenodd" clip-rule="evenodd" d="M7.33341 0.666687C7.06996 0.666687 6.83121 0.821843 6.72421 1.06259L4.2335 6.66669H2.66675C2.13631 6.66669 1.62761 6.8774 1.25253 7.25247C0.877462 7.62755 0.666748 8.13625 0.666748 8.66669V13.3334C0.666748 13.8638 0.877462 14.3725 1.25253 14.7476C1.62761 15.1226 2.13631 15.3334 2.66675 15.3334H12.1833C12.6642 15.3378 13.1306 15.1688 13.4971 14.8573C13.8645 14.545 14.1067 14.1105 14.1791 13.6338L15.0992 7.6334C15.1427 7.34675 15.1234 7.05408 15.0425 6.77565C14.9617 6.49722 14.8213 6.23969 14.6311 6.02091C14.4408 5.80213 14.2053 5.62733 13.9408 5.50861C13.6775 5.39047 13.3918 5.33068 13.1033 5.33335H10.0001V3.33335C10.0001 2.62611 9.71913 1.94783 9.21903 1.44774C8.71894 0.947639 8.04066 0.666687 7.33341 0.666687ZM7.73863 2.06309L5.33341 7.47483V14H12.1943C12.3551 14.0018 12.5111 13.9455 12.6336 13.8414C12.7561 13.7373 12.8368 13.5924 12.861 13.4334L13.781 7.43331C13.7954 7.33785 13.789 7.24012 13.7621 7.14739C13.7351 7.05458 13.6883 6.96874 13.6249 6.89582C13.5615 6.82289 13.483 6.76462 13.3948 6.72505C13.3067 6.68548 13.2109 6.66555 13.1143 6.66664L13.1067 6.66673L9.33341 6.66669C8.96522 6.66669 8.66675 6.36821 8.66675 6.00002V3.33335C8.66675 2.97973 8.52627 2.64059 8.27622 2.39054C8.12433 2.23865 7.93956 2.12719 7.73863 2.06309ZM4.00008 8.00002V14H2.66675C2.48994 14 2.32037 13.9298 2.19534 13.8048C2.07032 13.6797 2.00008 13.5102 2.00008 13.3334V8.66669C2.00008 8.48988 2.07032 8.32031 2.19534 8.19528C2.32037 8.07026 2.48994 8.00002 2.66675 8.00002H4.00008Z" fill="#2D3648"/>
</svg>
