<svg width="20" height="20" viewBox="0 0 16 16" fill="none" xmlns="http://www.w3.org/2000/svg">
<path fill-rule="evenodd" clip-rule="evenodd" d="M13.1079 0.666684H3.81666C3.3358 0.662244 2.86938 0.831217 2.5029 1.14272C2.13553 1.45499 1.89334 1.88945 1.8209 2.36612L0.900821 8.36664C0.857314 8.65328 0.876647 8.94596 0.957482 9.22439C1.03832 9.50282 1.17872 9.76035 1.36896 9.97913C1.55921 10.1979 1.79474 10.3727 2.05925 10.4914C2.3225 10.6096 2.60818 10.6694 2.89668 10.6667H5.99994V12.6667C5.99994 13.3739 6.28089 14.0522 6.78099 14.5523C7.28108 15.0524 7.95936 15.3334 8.66661 15.3334C8.93006 15.3334 9.16881 15.1782 9.27581 14.9374L11.7665 9.33335H13.1079C13.6463 9.34131 14.1691 9.15213 14.5778 8.80134C14.9881 8.44914 15.2548 7.95856 15.3273 7.42271C15.3313 7.39309 15.3333 7.36324 15.3333 7.33335V2.66668C15.3333 2.6368 15.3313 2.60694 15.3273 2.57732C15.2548 2.04147 14.9881 1.55089 14.5778 1.1987C14.1691 0.847902 13.6463 0.658728 13.1079 0.666684ZM13.1251 1.99991C13.339 1.99613 13.5469 2.07104 13.7093 2.21043C13.8619 2.34142 13.9643 2.52078 13.9999 2.71793V7.28211C13.9643 7.47925 13.8619 7.65862 13.7093 7.78961C13.5469 7.92899 13.339 8.00391 13.1251 8.00012L13.1133 8.00002H11.9999V2.00002H13.1133L13.1251 1.99991ZM8.26139 13.937L10.6666 8.52521V2.00002H3.80574C3.64496 1.9982 3.48894 2.05451 3.36643 2.15864C3.24392 2.26277 3.16318 2.40767 3.13907 2.56664L2.21906 8.56673C2.20463 8.66215 2.21103 8.75996 2.23794 8.85264C2.26489 8.94545 2.31169 9.0313 2.3751 9.10422C2.43852 9.17715 2.51703 9.23542 2.6052 9.27499C2.69337 9.31456 2.78909 9.33449 2.88572 9.33339L2.89327 9.33331L6.66661 9.33335C7.0348 9.33335 7.33327 9.63183 7.33327 10V12.6667C7.33327 13.0203 7.47375 13.3594 7.7238 13.6095C7.87569 13.7614 8.06046 13.8729 8.26139 13.937Z" fill="#2D3648"/>
</svg>
