<svg width="20" height="20" viewBox="0 0 20 20" fill="none" xmlns="http://www.w3.org/2000/svg">
<path fill-rule="evenodd" clip-rule="evenodd" d="M15.8335 0.976318C15.4146 0.976318 14.9997 1.05884 14.6126 1.21917C14.2255 1.3795 13.8738 1.6145 13.5776 1.91075L2.32759 13.1608C2.22505 13.2633 2.15104 13.3908 2.11288 13.5307L0.862879 18.1141C0.784194 18.4026 0.866135 18.7111 1.07759 18.9226C1.28905 19.1341 1.5976 19.216 1.88611 19.1373L6.46945 17.8873C6.60936 17.8491 6.73689 17.7751 6.83944 17.6726L18.0894 6.4226C18.3857 6.12634 18.6207 5.77464 18.781 5.38757C18.9414 5.0005 19.0239 4.58564 19.0239 4.16667C19.0239 3.74771 18.9414 3.33285 18.781 2.94578C18.6207 2.5587 18.3857 2.207 18.0894 1.91075C17.7932 1.6145 17.4415 1.3795 17.0544 1.21917C16.6673 1.05884 16.2525 0.976318 15.8335 0.976318ZM15.2504 2.75897C15.4353 2.6824 15.6334 2.64298 15.8335 2.64298C16.0336 2.64298 16.2317 2.6824 16.4166 2.75897C16.6015 2.83554 16.7694 2.94778 16.9109 3.08926C17.0524 3.23075 17.1646 3.39872 17.2412 3.58358C17.3178 3.76844 17.3572 3.96658 17.3572 4.16667C17.3572 4.36677 17.3178 4.5649 17.2412 4.74976C17.1646 4.93463 17.0524 5.1026 16.9109 5.24409L5.81741 16.3376L2.85453 17.1457L3.66259 14.1828L14.7561 3.08926C14.8976 2.94778 15.0656 2.83554 15.2504 2.75897Z" fill="#4A5468"/>
</svg>
