<svg width="20" height="20" viewBox="0 0 20 20" fill="none" xmlns="http://www.w3.org/2000/svg">
<path d="M15.5891 5.58928C15.9145 5.26384 15.9145 4.7362 15.5891 4.41076C15.2637 4.08533 14.736 4.08533 14.4106 4.41076L9.99984 8.82151L5.58909 4.41076C5.26366 4.08533 4.73602 4.08533 4.41058 4.41076C4.08514 4.7362 4.08514 5.26384 4.41058 5.58928L8.82133 10L4.41058 14.4108C4.08514 14.7362 4.08514 15.2638 4.41058 15.5893C4.73602 15.9147 5.26366 15.9147 5.58909 15.5893L9.99984 11.1785L14.4106 15.5893C14.736 15.9147 15.2637 15.9147 15.5891 15.5893C15.9145 15.2638 15.9145 14.7362 15.5891 14.4108L11.1783 10L15.5891 5.58928Z" fill="#2D3648"/>
</svg>
