<svg width="12" height="16" viewBox="0 0 12 16" fill="none" xmlns="http://www.w3.org/2000/svg">
<path fill-rule="evenodd" clip-rule="evenodd" d="M2.75975 9.56979C1.4873 8.59507 0.666748 7.06003 0.666748 5.33333C0.666748 2.38781 3.05456 0 6.00008 0C8.9456 0 11.3334 2.38781 11.3334 5.33333C11.3334 7.05969 10.5132 8.59447 9.24117 9.56922L9.99429 15.2457C10.028 15.4994 9.91336 15.75 9.6994 15.8906C9.48544 16.0311 9.20992 16.0367 8.99042 15.905L6.00008 14.1108L3.00975 15.905C2.79023 16.0367 2.51468 16.0311 2.30072 15.8905C2.08676 15.75 1.97218 15.4993 2.00589 15.2456L2.75975 9.56979ZM2.00008 5.33333C2.00008 3.12419 3.79094 1.33333 6.00008 1.33333C8.20922 1.33333 10.0001 3.12419 10.0001 5.33333C10.0001 6.72099 9.29348 7.9436 8.22045 8.661C8.1824 8.68067 8.14664 8.70385 8.11352 8.73005C7.50029 9.11242 6.77598 9.33333 6.00008 9.33333C3.79094 9.33333 2.00008 7.54247 2.00008 5.33333ZM7.99081 10.2827C7.37571 10.5304 6.70381 10.6667 6.00008 10.6667C5.29662 10.6667 4.62497 10.5305 4.01006 10.283L3.50971 14.0501L5.65708 12.7617C5.86821 12.635 6.13196 12.635 6.34308 12.7617L8.49067 14.0502L7.99081 10.2827Z" fill="#2D3648"/>
</svg>
